<?xml version="1.0" standalone="no"?>
<!DOCTYPE svg PUBLIC "-//W3C//DTD SVG 20010904//EN"
 "http://www.w3.org/TR/2001/REC-SVG-20010904/DTD/svg10.dtd">
<svg version="1.0" xmlns="http://www.w3.org/2000/svg"
 width="546.000000pt" height="546.000000pt" viewBox="0 0 546.000000 546.000000"
 preserveAspectRatio="xMidYMid meet">
<metadata>
Created by potrace 1.14, written by Peter Selinger 2001-2017
</metadata>
<g transform="translate(0.000000,546.000000) scale(0.100000,-0.100000)"
fill="#000000" stroke="none">
<path d="M1729 4346 c-2 -2 -30 -7 -61 -10 -116 -13 -296 -87 -400 -164 -243
-182 -351 -402 -343 -707 2 -102 7 -134 34 -215 46 -141 127 -271 226 -362 22
-20 121 -98 220 -173 99 -75 191 -145 205 -156 14 -11 48 -36 77 -57 29 -20
52 -41 52 -47 0 -5 -12 -19 -27 -29 -15 -11 -187 -144 -382 -295 -361 -279
-459 -355 -755 -586 -92 -71 -177 -137 -189 -145 -47 -32 -376 -292 -376 -297
0 -3 6 -1 13 4 10 9 585 299 2249 1136 175 88 315 164 312 168 -2 5 -125 101
-272 215 -147 113 -280 217 -297 230 -73 57 -277 215 -355 274 -47 36 -102 81
-123 100 -56 50 -115 144 -122 193 -3 23 -8 51 -9 62 -10 66 64 238 124 288
35 29 124 75 160 81 14 3 205 5 425 5 l400 1 125 171 c69 93 130 175 136 182
21 24 94 126 94 132 0 6 -1135 7 -1141 1z"/>
<path d="M3048 4318 c-12 -18 -28 -40 -35 -48 -76 -96 -291 -395 -288 -400 2
-3 226 -7 497 -8 271 -2 513 -5 538 -9 98 -13 204 -93 249 -188 24 -51 51
-158 46 -183 -1 -9 -6 -36 -10 -59 -8 -48 -66 -143 -116 -189 -19 -17 -257
-203 -529 -414 -272 -210 -503 -389 -512 -398 -19 -19 -89 17 1697 -882 462
-232 846 -428 854 -434 9 -7 12 -7 9 0 -4 5 -91 75 -193 155 -173 133 -440
340 -510 395 -382 296 -990 766 -1007 779 l-23 16 25 22 c32 28 41 34 290 223
253 191 257 195 319 272 83 103 151 241 176 357 14 64 14 260 -1 335 -66 343
-342 602 -717 675 -52 10 -166 14 -404 14 l-331 1 -24 -32z"/>
</g>
</svg>
